:FULLY-SPECIFIED
:FORCE-ALL-JOINTS-BE-3DOF
:DEGREES
272
root 8.46558 15.6441 -24.8204 32.3354 65.9661 32.846
lfemur -23.3471 13.6905 -19.2453
ltibia 51.0344 0 0
lfoot -15.0905 -21.077 0
ltoes 47.1426 0 0
rfemur -31.1405 0.175204 14.5617
rtibia 48.7968 0 0
rfoot -6.82097 -22.8281 0
rtoes 46.5629 0 0
lowerback 4.94317 -4.8105 -3.51839
upperback 2.65438 -6.49794 -1.47256
thorax 0.234717 -3.24888 0.746422
lowerneck -4.797 -10.1583 -4.34046
upperneck 2.87105 -13.6188 5.02001
head 2.61385 -6.74384 1.79813
lclavicle -4.84176e-15 1.72271e-14 0
lhumerus -46.8823 -38.7573 110.099
lradius 61.1134 0 0
lwrist 16.354 0 0
lhand 12.957 13.1589 0
lfingers 7.12502 0 0
lthumb 37.901 38.7773 0
rclavicle -4.84176e-15 1.72271e-14 0
rhumerus -58.836 4.22438 -89.7394
rradius 67.3588 0 0
rwrist 15.7478 0 0
rhand -24.8036 -12.9486 0
rfingers 7.12502 0 0
rthumb 1.70007 -762.836 0
273
root 8.56302 15.627 -24.7742 33.5623 67.3094 34.8188
lfemur -22.4925 13.0126 -19.5246
ltibia 51.2056 0 0
lfoot -14.927 -22.2036 0
ltoes 47.8292 0 0
rfemur -32.2597 0.00844656 15.1428
rtibia 49.3147 0 0
rfoot -5.28323 -22.4187 0
rtoes 46.1402 0 0
lowerback 5.19221 -4.90518 -3.79201
upperback 2.863 -6.63225 -1.72632
thorax 0.317513 -3.31637 0.651548
lowerneck -4.53972 -10.4042 -4.55012
upperneck 2.90328 -13.9513 5.24772
head 2.62342 -6.90864 1.89727
lclavicle -3.95446e-15 1.72339e-14 0
lhumerus -46.457 -39.0598 109.476
lradius 61.0351 0 0
lwrist 16.3174 0 0
lhand 13.3897 13.2005 0
lfingers 7.12502 0 0
lthumb 38.3107 38.7167 0
rclavicle -3.95446e-15 1.72339e-14 0
rhumerus -59.8092 5.30114 -91.0825
rradius 67.6808 0 0
rwrist 15.7728 0 0
rhand -25.2556 -12.2918 0
rfingers 7.12502 0 0
rthumb 1.26359 -762.187 0
274
root 8.65774 15.6104 -24.7292 34.755 68.6152 36.7367
lfemur -21.6616 12.3535 -19.796
ltibia 51.372 0 0
lfoot -14.7681 -23.2987 0
ltoes 48.4967 0 0
rfemur -33.3477 -0.153669 15.7078
rtibia 49.8182 0 0
rfoot -3.78829 -22.0206 0
rtoes 45.7293 0 0
lowerback 5.43432 -4.99723 -4.05801
upperback 3.06581 -6.76282 -1.97301
thorax 0.398005 -3.38198 0.559315
lowerneck -4.2896 -10.6433 -4.75396
upperneck 2.93462 -14.2746 5.4691
head 2.63272 -7.06885 1.99365
lclavicle -3.09186e-15 1.72406e-14 0
lhumerus -46.0435 -39.3539 108.871
lradius 60.9591 0 0
lwrist 16.2819 0 0
lhand 13.8104 13.2409 0
lfingers 7.12502 0 0
lthumb 38.7089 38.6579 0
rclavicle -3.09186e-15 1.72406e-14 0
rhumerus -60.7552 6.34792 -92.3882
rradius 67.9939 0 0
rwrist 15.7971 0 0
rhand -25.6951 -11.6533 0
rfingers 7.12502 0 0
rthumb 0.839265 -761.556 0
275
root 8.74926 15.5944 -24.6858 35.9073 69.8769 38.5897
lfemur -20.8588 11.7168 -20.0583
ltibia 51.5328 0 0
lfoot -14.6146 -24.3568 0
ltoes 49.1416 0 0
rfemur -34.3989 -0.310298 16.2537
rtibia 50.3047 0 0
rfoot -2.34394 -21.636 0
rtoes 45.3323 0 0
lowerback 5.66824 -5.08616 -4.31502
upperback 3.26176 -6.88897 -2.21135
thorax 0.475772 -3.44538 0.470202
lowerneck -4.04794 -10.8743 -4.95089
upperneck 2.96489 -14.587 5.68298
head 2.64171 -7.22365 2.08677
lclavicle -2.25845e-15 1.7247e-14 0
lhumerus -45.644 -39.638 108.286
lradius 60.8856 0 0
lwrist 16.2476 0 0
lhand 14.2168 13.28 0
lfingers 7.12502 0 0
lthumb 39.0937 38.601 0
rclavicle -2.25845e-15 1.7247e-14 0
rhumerus -61.6693 7.35927 -93.6498
rradius 68.2964 0 0
rwrist 15.8206 0 0
rhand -26.1197 -11.0364 0
rfingers 7.12502 0 0
rthumb 0.429295 -760.946 0
276
root 8.83708 15.579 -24.6442 37.0131 71.0876 40.3678
lfemur -20.0885 11.1058 -20.31
ltibia 51.6871 0 0
lfoot -14.4673 -25.3722 0
ltoes 49.7604 0 0
rfemur -35.4076 -0.460597 16.7775
rtibia 50.7715 0 0
rfoot -0.957956 -21.267 0
rtoes 44.9514 0 0
lowerback 5.8927 -5.1715 -4.56163
upperback 3.44979 -7.01002 -2.44006
thorax 0.550397 -3.50621 0.384692
lowerneck -3.81606 -11.0959 -5.13987
upperneck 2.99394 -14.8867 5.88822
head 2.65034 -7.37218 2.17612
lclavicle -1.45872e-15 1.72532e-14 0
lhumerus -45.2606 -39.9107 107.724
lradius 60.8151 0 0
lwrist 16.2147 0 0
lhand 14.6068 13.3175 0
lfingers 7.12502 0 0
lthumb 39.463 38.5464 0
rclavicle -1.45872e-15 1.72532e-14 0
rhumerus -62.5464 8.32976 -94.8603
rradius 68.5866 0 0
rwrist 15.8432 0 0
rhand -26.5271 -10.4444 0
rfingers 7.12502 0 0
rthumb 0.0358939 -760.361 0
277
root 8.92071 15.5644 -24.6045 38.0661 72.2405 42.0611
lfemur -19.355 10.524 -20.5497
ltibia 51.834 0 0
lfoot -14.327 -26.3391 0
ltoes 50.3497 0 0
rfemur -36.3681 -0.603723 17.2763
rtibia 51.216 0 0
rfoot 0.361871 -20.9155 0
rtoes 44.5886 0 0
lowerback 6.10645 -5.25276 -4.79648
upperback 3.62885 -7.1253 -2.65785
thorax 0.621459 -3.56414 0.303262
lowerneck -3.59524 -11.307 -5.31983
upperneck 3.0216 -15.1722 6.08367
head 2.65855 -7.51363 2.26121
lclavicle -6.97164e-16 1.7259e-14 0
lhumerus -44.8956 -40.1703 107.189
lradius 60.7479 0 0
lwrist 16.1833 0 0
lhand 14.9781 13.3532 0
lfingers 7.12502 0 0
lthumb 39.8146 38.4945 0
rclavicle -6.97164e-16 1.7259e-14 0
rhumerus -63.3816 9.25392 -96.0131
rradius 68.863 0 0
rwrist 15.8647 0 0
rhand -26.9151 -9.8807 0
rfingers 7.12502 0 0
rthumb -0.33873 -759.804 0
